# xmcd CD database file
#
# Track frame offsets:
#	150
#	14532
#	29105
#	51233
#	69542
#	86370
#	111091
#	128290
#	143858
#	160290
#	177986
#	190581
#
# Disc length: 2749 seconds
#
# Revision: 0
# Processed by: cddbd v1.5.1PL0 Copyright (c) Steve Scherf et al.
# Submitted via: CDex 1.51
#
DISCID=9f0abb0c
DTITLE=Acoustic Blues Trio - Bad Boyz
DYEAR=2000
DGENRE=Blues
TTITLE0=Holiday
TTITLE1=A Bluesman's Work Is Never Done
TTITLE2=Still Lonely
TTITLE3=Josephine
TTITLE4=Feel So Good
TTITLE5=Let Her Got
TTITLE6=Shake Me
TTITLE7=Rock This Town
TTITLE8=National Anthem
TTITLE9=Damn' Good Lover
TTITLE10=Mississippi
TTITLE11=Cheatin' On Me
EXTD=YEAR: 2000
EXTT0=
EXTT1=
EXTT2=
EXTT3=
EXTT4=
EXTT5=
EXTT6=
EXTT7=
EXTT8=
EXTT9=
EXTT10=
EXTT11=
PLAYORDER=
